<?xml version="1.0" encoding="UTF-8" standalone="no"?>
<!DOCTYPE svg PUBLIC "-//W3C//DTD SVG 1.1//EN" "http://www.w3.org/Graphics/SVG/1.1/DTD/svg11.dtd">
<svg width="100%" height="100%" viewBox="0 0 1117 834" version="1.1" xmlns="http://www.w3.org/2000/svg" xmlns:xlink="http://www.w3.org/1999/xlink" xml:space="preserve" xmlns:serif="http://www.serif.com/" style="fill-rule:evenodd;clip-rule:evenodd;stroke-linejoin:round;stroke-miterlimit:2;">
    <rect id="Artboard1" x="0" y="0" width="1116.67" height="833.333" style="fill:none;"/>
    <g id="Artboard11" serif:id="Artboard1">
        <g id="Layer-3" serif:id="Layer 3" transform="matrix(2.11097,0,0,2.10985,-97.1726,-62.2113)">
            <g transform="matrix(1,0,0,1,279.677,225.158)">
                <path d="M0,75.435C9.365,56.87 64.075,-1.455 84.447,-60.765C129.307,-79.111 170.965,-100.451 208.442,-125.698C209.377,-126.328 210.541,-125.316 210.043,-124.304C190.198,-83.981 149.599,-48.087 78.602,-16.899C88.443,-17.621 131.158,-35.681 146.386,-43.678C150.986,-43.678 132.914,-16.077 127.985,-13.777C116.739,-5.125 92.005,8.239 57.667,23.847C72.595,19.828 89.138,14.257 107.284,5.939C98,19.232 88.083,31.796 73.768,39.29C59.967,47.998 42.059,51.777 27.437,58.677C21.345,61.726 15.555,67.644 9.858,74.449C22.007,69.105 32.965,63.561 42.552,60.977C38.06,74.815 21.358,83.814 3.614,91.207C17.682,88.606 23.67,86.093 33.352,80.528C31.709,86.771 10.979,99.111 2.793,103.365C8.239,102.712 17.788,101.128 28.259,92.522C23.548,101.271 14.526,108.326 5.327,113.173C-1.303,116.666 -6.508,120.697 -10.726,125.425C-16.17,131.526 -20.738,138.099 -24.644,145.096C-17.857,138.26 -7.925,129.989 1.573,125.826C125.979,130.47 177.982,84.019 242.848,0.435C237.721,19.941 232.5,33.294 219.497,52.434C184.016,98.192 86.4,134.904 19.184,141.426C114.839,152.345 215.346,116.451 284.886,57.198C270.745,81.714 261.36,99.547 229.401,115.505C154.497,140.523 95.482,153.357 22.974,159.055C-46.239,201.763 -86.921,195.783 -141.802,166.176C-145.157,164.366 -148.319,162.211 -151.437,160.017C-155.457,157.19 -158.888,154.971 -160.958,153.483C-164.909,150.643 -171.78,147.712 -178.273,147.351C-193.796,146.488 -205.386,148.86 -220.841,151.86C-214.998,142.135 -207.9,134.31 -194.687,125.526C-176.712,93.939 -141.739,78.01 -86.912,98.436C-81.818,99.093 -80.836,94.909 -74.59,83.814C-60.682,56.47 -36.26,3.992 -21.035,-13.015C-6.155,-33.014 34.977,-42.551 69.989,-54.686C63.462,-16.189 18.73,28.775 0,75.435" style="fill:rgb(43,91,133);fill-rule:nonzero;"/>
            </g>
            <g transform="matrix(1,0,0,1,182.937,115.89)">
                <path d="M0,122.352C-1.845,128.526 -6.252,139.572 -14.866,143.06C-1.555,127.521 5.987,67.915 -4.951,44.793C-5.165,44.342 -5.826,44.425 -5.923,44.915C-9.441,62.764 -19.446,89.791 -28.495,98.643C-20.4,75.229 -13.968,56.074 -12.519,32.729C-12.518,32.717 -12.517,32.704 -12.517,32.692C-12.323,-11.539 -17.856,-50.985 -23.301,-70.755C-23.442,-71.266 -24.172,-71.247 -24.294,-70.731C-29.64,-48.129 -56.464,57.668 -64.126,87.806C-65.687,93.947 -65.858,100.345 -64.647,106.564C-59.854,131.179 -45.929,170.631 -43.225,190.033C-43.191,190.276 -34.275,189.528 -25.1,190.405C-15.926,191.283 -6.662,193.618 -6.585,193.429C1.058,174.606 2.338,132.925 1.002,122.431C0.932,121.882 0.159,121.821 0,122.352" style="fill:rgb(43,91,133);fill-rule:nonzero;"/>
            </g>
        </g>
    </g>
</svg>
